HIERARCHY
ROOT Bip001_Pelvis
{
  OFFSET 34.4345 95.6767 -26.8758
  CHANNELS 6 Xposition Yposition Zposition Zrotation Xrotation Yrotation
  JOINT Bip001_Spine
  {
    OFFSET 1.4188e-005 10.2191 -0.0116013
    CHANNELS 3 Zrotation Xrotation Yrotation
    JOINT Bip001_L_Thigh
    {
      OFFSET 11.0458 -10.2192 0.0116197
      CHANNELS 3 Zrotation Xrotation Yrotation
      JOINT Bip001_L_Calf
      {
        OFFSET -0.707118 -44.0221 0.360014
        CHANNELS 3 Zrotation Xrotation Yrotation
        JOINT Bip001_L_Foot
        {
          OFFSET -0.651902 -40.5938 -3.56146
          CHANNELS 3 Zrotation Xrotation Yrotation
          JOINT Bip001_L_Toe0
          {
            OFFSET 0.0530839 -10.2181 13.1504
            CHANNELS 3 Zrotation Xrotation Yrotation
            End Site
            {
              OFFSET -1.02532e-005 0 7.55606
            }
          }
        }
      }
    }
    JOINT Bip001_R_Thigh
    {
      OFFSET -11.0458 -10.2191 0.0115893
      CHANNELS 3 Zrotation Xrotation Yrotation
      JOINT Bip001_R_Calf
      {
        OFFSET 0.706994 -44.0221 0.35984
        CHANNELS 3 Zrotation Xrotation Yrotation
        JOINT Bip001_R_Foot
        {
          OFFSET 0.651786 -40.5938 -3.5613
          CHANNELS 3 Zrotation Xrotation Yrotation
          JOINT Bip001_R_Toe0
          {
            OFFSET -0.0531479 -10.2181 13.1504
            CHANNELS 3 Zrotation Xrotation Yrotation
            End Site
            {
              OFFSET -1.02894e-005 0 7.55606
            }
          }
        }
      }
    }
    JOINT Bip001_Spine1
    {
      OFFSET 1.87041e-005 14.5736 1.08638
      CHANNELS 3 Zrotation Xrotation Yrotation
      JOINT Bip001_Spine2
      {
        OFFSET 2.24614e-005 14.5058 -1.69078
        CHANNELS 3 Zrotation Xrotation Yrotation
        JOINT Bip001_Neck
        {
          OFFSET 2.20278e-005 15.3945 -0.489414
          CHANNELS 3 Zrotation Xrotation Yrotation
          JOINT Bip001_L_Clavicle
          {
            OFFSET 6.06036 -0.000579998 0.00836775
            CHANNELS 3 Zrotation Xrotation Yrotation
            JOINT Bip001_L_UpperArm
            {
              OFFSET 11.5509 -0.0600302 0.00193952
              CHANNELS 3 Zrotation Xrotation Yrotation
              JOINT Bip001_L_Forearm
              {
                OFFSET 25.9523 0.0806089 -2.15551
                CHANNELS 3 Zrotation Xrotation Yrotation
                JOINT Bip001_L_Hand
                {
                  OFFSET 32.2475 0.153767 1.63968
                  CHANNELS 3 Zrotation Xrotation Yrotation
                  JOINT Bip001_L_Finger0
                  {
                    OFFSET 6.04639 -2.20976 5.90322
                    CHANNELS 3 Zrotation Xrotation Yrotation
                    End Site
                    {
                      OFFSET 4.22375 -1.43895 0.606485
                    }
                  }
                  JOINT Bip001_L_Finger1
                  {
                    OFFSET 11.0826 -0.704819 -0.198153
                    CHANNELS 3 Zrotation Xrotation Yrotation
                    End Site
                    {
                      OFFSET 6.20027 -0.397518 -0.0787166
                    }
                  }
                }
              }
            }
          }
          JOINT Bip001_R_Clavicle
          {
            OFFSET -6.06037 -0.000563197 0.00835105
            CHANNELS 3 Zrotation Xrotation Yrotation
            JOINT Bip001_R_UpperArm
            {
              OFFSET -11.5509 -0.0599978 0.00190698
              CHANNELS 3 Zrotation Xrotation Yrotation
              JOINT Bip001_R_Forearm
              {
                OFFSET -25.9523 0.0806822 -2.15589
                CHANNELS 3 Zrotation Xrotation Yrotation
                JOINT Bip001_R_Hand
                {
                  OFFSET -32.2475 0.153859 1.63989
                  CHANNELS 3 Zrotation Xrotation Yrotation
                  JOINT Bip001_R_Finger0
                  {
                    OFFSET -6.04641 -2.20976 5.90317
                    CHANNELS 3 Zrotation Xrotation Yrotation
                    End Site
                    {
                      OFFSET -4.22376 -1.43895 0.60647
                    }
                  }
                  JOINT Bip001_R_Finger1
                  {
                    OFFSET -11.0826 -0.704794 -0.198182
                    CHANNELS 3 Zrotation Xrotation Yrotation
                    End Site
                    {
                      OFFSET -6.20028 -0.397504 -0.0787333
                    }
                  }
                }
              }
            }
          }
          JOINT Bip001_Head
          {
            OFFSET 1.09673e-005 11.2744 2.05948
            CHANNELS 3 Zrotation Xrotation Yrotation
            End Site
            {
              OFFSET 2.89576e-005 20.8808 -2.77728e-005
            }
          }
        }
      }
    }
  }
}
MOTION
Frames:	13
Frame Time:	0.04
33.7845 95.934 -29.3788 0.621616 -0.90374 -0.943136 -0.263942 2.16771 0.203118 4.04068 -2.34218 10.4407 0.313145 6.78819 -8.7487 3.03047 -3.81587 -0.0535416 0.90445 -4.5204 -0.303377 -4.20112 -4.00164 2.34911 1.05181 11.1487 0.0129394 -5.57287 -8.92589 0.87252 2.16885 -7.30673 2.18769 -0.538023 4.32551 0.411674 -0.537733 4.32553 0.411681 3.48084 -8.7207 -3.03274 -28.1807 9.02697 1.26404 -59.213 44.6508 6.51519 16.4176 -1.19459 -22.9674 8.64779 1.5837 -3.47731 3.53112e-031 -6.36111e-015 3.18055e-015 -3.18055e-015 -6.36111e-015 4.77083e-015 20.7474 15.5374 16.6284 56.5225 23.7746 -3.24178 -12.0066 35.2928 18.6288 -7.61705 -2.31145 13.917 -4.77083e-015 1.59028e-015 2.78298e-015 -4.77083e-015 0 2.38542e-015 -2.7167 -6.16725 -1.69883 
33.7579 95.9273 -29.3716 0.633772 -0.930833 -0.893089 -0.274573 2.16066 0.220776 4.08087 -2.33217 10.2898 0.211398 6.8276 -8.70449 3.37954 -3.59997 -0.0562843 1.0559 -4.74352 -0.465991 -4.17364 -3.95066 2.39744 1.04741 11.1531 0.0357106 -5.64742 -8.94441 0.738431 2.17054 -7.32414 2.19577 -0.55516 4.32135 0.452142 -0.555783 4.32137 0.452229 3.44134 -8.75785 -3.09071 -28.2669 8.99773 1.46226 -59.1136 44.8706 6.6103 16.3983 -1.39733 -23.0519 9.25653 1.50505 -3.59279 -2.64834e-031 -3.18055e-015 -4.77083e-015 -3.18055e-015 3.18056e-015 -4.77083e-015 20.7217 15.5703 16.6436 56.5583 23.0648 -3.23203 -12.1418 35.9803 18.879 -7.91953 -2.80992 14.2552 3.18055e-015 1.59028e-015 -3.97569e-015 8.82782e-032 1.59028e-015 -3.18055e-015 -2.66467 -6.20788 -1.77515 
33.7361 95.9253 -29.3494 0.646379 -0.925628 -0.812041 -0.284569 2.14525 0.242657 4.13992 -2.32806 10.1796 0.124895 6.85037 -8.6405 3.32045 -3.65996 -0.0566692 1.06339 -4.6989 -0.475856 -4.14359 -3.92292 2.36663 1.01901 11.1856 0.0399491 -5.68425 -8.96525 0.663405 2.17545 -7.35265 2.2053 -0.574861 4.28926 0.496448 -0.574749 4.28927 0.496441 3.44267 -8.767 -3.15841 -28.2038 9.00159 1.43174 -59.1573 44.8103 6.7425 16.2954 -1.6157 -23.0953 9.50341 1.46453 -3.54574 -3.18055e-015 -3.18055e-015 -3.18055e-015 -3.18055e-015 3.18056e-015 -1.59028e-015 20.7059 15.5914 16.6568 56.4929 22.3111 -3.40452 -12.4062 36.3913 19.3469 -7.76503 -3.06273 14.4957 -3.18055e-015 0 7.95139e-016 -3.18055e-015 0 7.95139e-016 -2.65162 -6.16567 -1.8424 
33.7137 95.9237 -29.3142 0.666959 -0.910288 -0.697634 -0.288989 2.11388 0.254079 4.15714 -2.3047 10.1244 0.0999644 6.83905 -8.77122 3.27864 -3.67923 -0.0521964 0.9767 -4.63903 -0.408915 -4.12026 -3.87124 2.24494 0.977344 11.2036 0.00334346 -5.67846 -8.99645 0.67754 2.18425 -7.37505 2.20023 -0.588003 4.22645 0.51941 -0.587946 4.22646 0.519388 3.29438 -8.81935 -3.17704 -28.0605 9.06813 1.42055 -59.0145 44.7797 6.89097 16.3137 -1.47284 -23.1438 9.15247 1.49759 -3.42582 -8.82781e-032 -3.18055e-015 -1.59028e-015 -1.76556e-031 -6.36111e-015 -1.59028e-015 20.8024 15.6555 16.7033 56.4198 21.8688 -3.57126 -12.4201 36.4187 19.5227 -7.50615 -3.50856 14.9293 3.18055e-015 -1.59028e-015 -0 3.18055e-015 -1.59028e-015 -0 -2.54788 -5.88636 -1.90446 
33.6973 95.9261 -29.2653 0.71746 -0.910231 -0.518469 -0.310637 2.08438 0.276688 4.17304 -2.21395 9.96153 0.0416705 6.73527 -8.7841 3.08218 -3.77069 -0.0479463 0.902135 -4.5283 -0.325397 -4.13034 -3.78769 1.82298 0.903545 11.2507 0.0620135 -5.65415 -9.0715 0.796032 2.19025 -7.38885 2.1996 -0.631977 4.1672 0.565248 -0.631977 4.1672 0.565248 3.16518 -8.86513 -3.24854 -27.7957 9.15399 1.28108 -59.0926 44.749 6.95231 16.1109 -2.0976 -23.0307 8.50113 1.65392 -3.05775 2.64834e-031 9.54166e-015 -1.59028e-015 3.18055e-015 3.18056e-015 -1.59028e-015 20.9829 15.7615 16.8048 56.1699 21.2061 -3.61573 -12.5003 36.4227 19.578 -6.36614 -4.23689 15.9525 -0 0 5.56597e-015 1.59028e-015 0 1.98785e-015 -2.44741 -5.80114 -2.01883 
33.6753 95.9299 -29.2106 0.776987 -0.897634 -0.204919 -0.330545 2.0745 0.28084 4.19788 -2.20988 9.73034 -0.0669435 6.67545 -8.8439 3.08175 -3.68795 -0.0455432 0.8966 -4.52816 -0.354201 -4.13092 -3.68758 1.46365 0.826777 11.2508 0.0914337 -5.68418 -9.12768 0.817451 2.19712 -7.41132 2.22115 -0.671372 4.14769 0.578352 -0.671389 4.1477 0.578297 3.03065 -9.18168 -3.33267 -27.6081 9.46567 1.30935 -58.9272 44.7751 6.80119 16.0298 -2.40058 -22.9375 8.37496 1.72474 -2.96235 3.53112e-031 -6.36111e-015 3.18055e-015 3.18055e-015 -1.27222e-014 3.18055e-015 20.9583 16.1417 17.04 55.9947 20.0742 -3.65004 -13.1401 36.295 20.2446 -4.2164 -4.1013 16.8481 2.86904e-031 -3.18055e-015 5.1684e-015 2.64834e-031 -4.77083e-015 3.18055e-015 -2.3711 -5.69953 -2.14695 
33.6242 95.9307 -29.1531 0.735432 -0.857906 0.152668 -0.330729 2.06824 0.281628 4.34171 -2.30444 9.4847 -0.162322 6.76549 -8.92669 2.94255 -3.81712 -0.0468487 0.826683 -4.3867 -0.265284 -3.99605 -3.59998 1.30609 0.749871 11.2139 0.0726931 -5.7749 -9.09779 0.621906 2.21551 -7.48321 2.24918 -0.668834 4.13572 0.580214 -0.668873 4.13572 0.580436 2.79151 -9.47946 -3.41628 -27.3566 9.74 1.42912 -58.7719 44.6975 6.6933 16.2193 -2.4251 -23.0821 8.4741 1.69939 -2.94458 8.82781e-032 -3.18055e-015 1.59028e-015 8.82782e-032 -3.18056e-015 1.59028e-015 21.0107 16.489 17.2483 55.5915 19.6318 -3.69939 -14.1361 35.3919 21.3638 -0.811266 -3.45236 18.1467 0 0 -2.78298e-015 -1.59028e-015 0 -7.95139e-016 -2.21873 -5.6737 -2.31133 
33.5706 95.9324 -29.0887 0.730668 -0.839 0.548657 -0.34352 2.05905 0.281851 4.4762 -2.31335 9.37816 -0.320097 6.71878 -9.23085 3.13393 -3.6677 -0.0500671 0.834278 -4.46441 -0.280736 -3.85387 -3.46352 1.05254 0.599867 11.1594 0.103092 -5.85483 -9.08719 0.467662 2.23623 -7.53585 2.25396 -0.698689 4.11718 0.576036 -0.698308 4.11717 0.576357 2.50491 -9.80462 -3.51655 -27.0177 10.0139 1.65779 -58.7421 44.5337 6.7837 16.4318 -2.75976 -23.5995 8.62721 1.58426 -2.93385 -3.18055e-015 0 -0 -6.36111e-015 3.18056e-015 1.59028e-015 21.2643 16.8472 17.2696 54.7871 19.0877 -3.94988 -15.9773 33.4636 23.2216 4.19703 -2.18171 19.8112 1.59028e-015 -1.59028e-015 -1.19271e-015 1.59028e-015 -4.77083e-015 -0 -1.96864 -5.29434 -2.51015 
33.4556 95.9311 -29.0654 0.620467 -0.740407 1.06364 -0.344916 2.04228 0.258743 4.89531 -2.57955 9.12398 -0.677565 7.00303 -9.33224 2.85934 -3.97129 -0.0375915 0.684444 -4.22504 -0.163263 -3.52728 -3.32001 1.00196 0.40565 10.9136 -0.0135143 -5.97079 -8.96525 0.174234 2.26763 -7.63322 2.28613 -0.700816 4.08294 0.528687 -0.700794 4.08295 0.530049 2.22231 -10.0937 -3.63349 -26.6947 10.2014 2.04653 -58.7053 44.2566 7.06942 16.4784 -3.81142 -24.577 8.72749 1.41097 -2.78245 0 0 -1.59028e-015 8.82782e-032 -3.18056e-015 1.59028e-015 21.4459 17.0736 17.0112 54.054 17.1353 -5.082 -21.1565 30.6669 27.709 10.2819 0.155607 19.3616 -1.59028e-015 -3.18055e-015 1.19271e-015 1.32417e-031 -4.77083e-015 1.59028e-015 -1.67353 -5.07891 -2.73512 
33.4024 95.9174 -29.0441 0.539737 -0.661127 1.53362 -0.366534 2.02644 0.251591 5.1854 -2.87883 8.62967 -0.959492 7.35652 -9.25716 2.95921 -4.07238 -0.0303022 0.748847 -4.24596 -0.249203 -3.26647 -3.26717 1.04031 0.26954 10.8637 -0.0907007 -6.13056 -8.88774 -0.241961 2.30815 -7.76115 2.33121 -0.742669 4.05119 0.516641 -0.74267 4.0512 0.516643 2.11147 -10.3468 -3.79638 -26.3775 10.3251 2.45519 -58.8774 43.8886 7.46462 16.4885 -4.73541 -25.5691 9.60788 1.20439 -2.66788 -1.76556e-031 -3.18055e-015 -3.18055e-015 -5.29669e-031 -9.54167e-015 -3.18055e-015 21.0149 17.1302 16.6888 54.9934 14.7257 -7.20782 -30.4247 25.2175 32.6454 10.8915 0.785065 16.3093 -3.18055e-015 1.59028e-015 7.95139e-016 -3.18055e-015 1.59028e-015 1.59028e-015 -1.43751 -5.06582 -2.96044 
33.4096 95.9276 -29.0383 0.484963 -0.652365 1.88921 -0.393306 2.0083 0.265641 5.31952 -2.96891 8.31672 -1.05899 7.41782 -9.27083 2.9143 -4.09741 -0.0337123 0.723882 -4.19353 -0.208374 -3.11013 -3.14834 0.913265 0.171795 10.7412 -0.142364 -6.20203 -8.75809 -0.443949 2.33862 -7.84822 2.35212 -0.79736 4.01466 0.553248 -0.797505 4.01467 0.553181 2.21506 -10.3676 -3.99318 -26.3376 10.2558 2.6163 -59.0184 43.2141 7.97557 15.9624 -7.32181 -26.7103 8.25172 1.44961 -1.96007 3.18055e-015 -3.18055e-015 3.18055e-015 3.18055e-015 -3.18056e-015 3.18055e-015 20.0928 16.8565 16.3027 55.2397 10.1769 -8.39624 -38.3901 19.8474 38.549 2.58861 -4.12536 12.7239 3.18055e-015 -3.18055e-015 3.18055e-015 3.18055e-015 -1.59028e-015 3.18055e-015 -1.42259 -5.26623 -3.13417 
33.4549 95.9285 -29.0509 0.446165 -0.655989 2.19029 -0.397828 2.00536 0.266204 5.4172 -3.06541 8.01497 -1.30086 7.48438 -9.24799 3.63606 -3.76413 -0.0581382 0.978501 -4.4704 -0.394949 -3.03156 -3.05141 0.7979 0.087708 10.643 -0.209098 -6.23243 -8.66029 -0.557215 2.35266 -7.9243 2.40371 -0.802948 4.00869 0.543927 -0.802332 4.00869 0.54391 2.19701 -10.5053 -4.09239 -26.2875 10.3366 2.77608 -59.0781 42.9331 8.27641 16.2323 -7.43409 -27.0435 8.34137 1.04206 -2.00491 -3.18055e-015 -3.18055e-015 3.18055e-015 -3.18055e-015 -6.36111e-015 -0 19.4631 16.7672 15.9986 53.3537 0.83016 -8.95085 -46.9373 14.5685 50.2223 -6.14603 -8.54411 7.98587 -3.18055e-015 -1.59028e-015 -3.18055e-015 2.64834e-031 -4.77083e-015 3.18055e-015 -1.47106 -5.20116 -3.22646 
33.4811 95.9327 -29.0886 0.371167 -0.57231 2.16004 -0.404107 1.97466 0.298286 5.62587 -3.21529 8.06349 -1.48514 7.71213 -9.24911 2.74468 -4.25473 -0.0239688 0.597635 -3.95476 -0.0667942 -2.91936 -3.12559 1.26342 0.0961093 10.6045 -0.237923 -6.36627 -8.48778 -0.968695 2.38124 -7.98104 2.39741 -0.808889 3.94719 0.611128 -0.80754 3.94719 0.611068 2.18011 -10.3313 -4.10681 -26.1018 10.2022 2.63854 -59.0523 42.9474 8.36858 16.1169 -7.63554 -26.981 8.43803 1.22026 -2.11555 3.18055e-015 0 -3.18055e-015 0 0 -0 18.7635 16.4099 15.9766 49.4987 -14.863 -8.05435 -54.7243 10.7688 67.1033 -13.9342 -10.1478 3.53592 3.18055e-015 -9.54166e-015 -0 7.95139e-016 -1.27222e-014 -0 -1.47249 -5.07745 -3.23801 
